<?xml version="1.0" encoding="UTF-8"?>
<svg width="1990" height="900" viewBox="0 0 1990 900" fill="none" xmlns="http://www.w3.org/2000/svg">
  <defs>
    <linearGradient id="bg" x1="0" y1="0" x2="390" y2="844" gradientUnits="userSpaceOnUse"><stop stop-color="#FFF8E9"/><stop offset="1" stop-color="#F3E8D4"/></linearGradient>
    <filter id="shadow" x="-20" y="-20" width="430" height="240" filterUnits="userSpaceOnUse"><feDropShadow dx="0" dy="8" stdDeviation="12" flood-color="#A48758" flood-opacity="0.1"/></filter>
  </defs>

  <!-- BIOLOGY -->
  <g transform="translate(0 32)">
    <rect x="1" y="1" width="388" height="842" rx="36" fill="url(#bg)" stroke="#E5D5BB" stroke-width="2"/>
    <circle cx="340" cy="76" r="84" fill="#DDF2DD" opacity=".55"/>
    <text x="18" y="48" fill="#5D4428" font-family="Nunito, sans-serif" font-size="26" font-weight="800">생물</text>
    <text x="18" y="72" fill="#8A735A" font-family="Nunito, sans-serif" font-size="13">물고기, 곤충, 해산물을 기록해요.</text>
    <circle cx="350" cy="44" r="20" fill="#FFFDF7" stroke="#E9DDC8"/><path d="m350 48 5 5m-9-4c-4 0-7-3-7-7s3-7 7-7 7 3 7 7-3 7-7 7Z" stroke="#8C755B" stroke-width="1.7" stroke-linecap="round"/>
    <rect x="18" y="96" width="354" height="44" rx="22" fill="#FFFDF7" stroke="#EBDDC8"/><text x="46" y="123" fill="#A08A70" font-family="Nunito, sans-serif" font-size="13">생물 이름 검색</text><path d="m346 123 5 5m-9-5c-3 0-5-2-5-5s2-5 5-5 5 2 5 5-2 5-5 5Z" stroke="#A08A70" stroke-width="1.5" stroke-linecap="round"/>
    <g transform="translate(18 160)"><rect width="94" height="32" rx="16" fill="#61B97D"/><text x="47" y="21" text-anchor="middle" fill="white" font-family="Nunito, sans-serif" font-size="12" font-weight="800">물고기</text><rect x="102" width="78" height="32" rx="16" fill="#FFFDF7" stroke="#E7DCC7"/><text x="141" y="21" text-anchor="middle" fill="#806C54" font-family="Nunito, sans-serif" font-size="12">곤충</text><rect x="190" width="94" height="32" rx="16" fill="#FFFDF7" stroke="#E7DCC7"/><text x="237" y="21" text-anchor="middle" fill="#806C54" font-family="Nunito, sans-serif" font-size="12">해산물</text></g>
    <text x="18" y="226" fill="#5D4428" font-family="Nunito, sans-serif" font-size="16" font-weight="800">물고기</text><text x="372" y="226" text-anchor="end" fill="#8A735A" font-family="Nunito, sans-serif" font-size="12">48 / 80</text>
    <g transform="translate(18 246)" filter="url(#shadow)"><rect width="354" height="310" rx="25" fill="#FFFDF7"/><rect width="354" height="310" rx="25" stroke="#EBDDC8"/>
      <g transform="translate(16 16)"><rect width="322" height="78" rx="20" fill="#F1FAF1"/><circle cx="38" cy="39" r="25" fill="#D6F0D9"/><path d="M23 41c6-14 22-17 31-7-4 12-16 18-31 7Zm10-14 14 17" stroke="#4D9660" stroke-width="1.8" stroke-linecap="round" stroke-linejoin="round"/><text x="78" y="34" fill="#5D4428" font-family="Nunito, sans-serif" font-size="15" font-weight="800">청새치</text><text x="78" y="54" fill="#8A7A65" font-family="Nunito, sans-serif" font-size="11">바다 · 16:00-09:00</text><rect x="254" y="27" width="58" height="24" rx="12" fill="#FFF0D8"/><text x="283" y="43" text-anchor="middle" fill="#8C6128" font-family="Nunito, sans-serif" font-size="10" font-weight="800">4,000벨</text></g>
      <g transform="translate(16 108)"><rect width="322" height="78" rx="20" fill="#F7F9FF"/><circle cx="38" cy="39" r="25" fill="#E1E8FA"/><path d="M23 43c6-10 21-13 30-4M28 29c5 3 12 3 18 0M38 25v9" stroke="#637AAE" stroke-width="1.8" stroke-linecap="round"/><text x="78" y="34" fill="#5D4428" font-family="Nunito, sans-serif" font-size="15" font-weight="800">송사리</text><text x="78" y="54" fill="#8A7A65" font-family="Nunito, sans-serif" font-size="11">연못 · 종일</text><rect x="254" y="27" width="58" height="24" rx="12" fill="#DDF4E0"/><text x="283" y="43" text-anchor="middle" fill="#347043" font-family="Nunito, sans-serif" font-size="10" font-weight="800">300벨</text></g>
      <g transform="translate(16 200)"><rect width="322" height="78" rx="20" fill="#FFF8EC"/><circle cx="38" cy="39" r="25" fill="#FFE4AA"/><path d="M23 45c5-12 21-17 31-7-4 10-16 15-31 7Zm8-19 14 17" stroke="#A8752E" stroke-width="1.8" stroke-linecap="round"/><text x="78" y="34" fill="#5D4428" font-family="Nunito, sans-serif" font-size="15" font-weight="800">금붕어</text><text x="78" y="54" fill="#8A7A65" font-family="Nunito, sans-serif" font-size="11">연못 · 09:00-16:00</text><rect x="254" y="27" width="58" height="24" rx="12" fill="#F1E7FF"/><text x="283" y="43" text-anchor="middle" fill="#7457A4" font-family="Nunito, sans-serif" font-size="10" font-weight="800">1,300벨</text></g>
    </g>
    <g transform="translate(18 586)"><rect width="354" height="70" rx="23" fill="#EFFBF3" stroke="#D8EBD9"/><text x="18" y="29" fill="#438454" font-family="Nunito, sans-serif" font-size="12" font-weight="800">이번 달 새로 잡을 수 있어요</text><text x="18" y="51" fill="#66816B" font-family="Nunito, sans-serif" font-size="11">현재 시간과 계절에 맞는 미수집 생물 4종</text><path d="m330 33 7 7-7 7" stroke="#73A479" stroke-width="1.7" stroke-linecap="round" stroke-linejoin="round"/></g>
    <g transform="translate(18 704)"><rect width="354" height="64" rx="25" fill="#FCFAF3" stroke="#E8DFC8"/><rect x="100" y="8" width="70" height="48" rx="18" fill="#F3C85E"/><text x="135" y="45" text-anchor="middle" fill="#6A4B20" font-family="Nunito, sans-serif" font-size="10" font-weight="800">도감</text><text x="53" y="45" text-anchor="middle" fill="#867A63" font-family="Nunito, sans-serif" font-size="10">오늘</text><text x="221" y="45" text-anchor="middle" fill="#867A63" font-family="Nunito, sans-serif" font-size="10">공략</text><text x="307" y="45" text-anchor="middle" fill="#867A63" font-family="Nunito, sans-serif" font-size="10">내 섬</text></g>
  </g>

  <!-- MUSEUM -->
  <g transform="translate(400 32)">
    <rect x="1" y="1" width="388" height="842" rx="36" fill="url(#bg)" stroke="#E5D5BB" stroke-width="2"/><circle cx="40" cy="105" r="80" fill="#E9D9FC" opacity=".4"/>
    <text x="18" y="48" fill="#5D4428" font-family="Nunito, sans-serif" font-size="26" font-weight="800">박물관</text><text x="18" y="72" fill="#8A735A" font-family="Nunito, sans-serif" font-size="13">기증한 작품과 아직 만나지 못한 것을 살펴봐요.</text>
    <g transform="translate(18 96)"><rect width="354" height="44" rx="22" fill="#FFFDF7" stroke="#EBDDC8"/><text x="28" y="27" fill="#A08A70" font-family="Nunito, sans-serif" font-size="13">박물관 항목 검색</text><path d="m346 27 5 5m-9-5c-3 0-5-2-5-5s2-5 5-5 5 2 5 5-2 5-5 5Z" stroke="#A08A70" stroke-width="1.5" stroke-linecap="round"/></g>
    <g transform="translate(18 160)"><rect width="94" height="32" rx="16" fill="#8061A9"/><text x="47" y="21" text-anchor="middle" fill="white" font-family="Nunito, sans-serif" font-size="12" font-weight="800">화석</text><rect x="102" width="94" height="32" rx="16" fill="#FFFDF7" stroke="#E7DCC7"/><text x="149" y="21" text-anchor="middle" fill="#806C54" font-family="Nunito, sans-serif" font-size="12">미술품</text></g>
    <text x="18" y="226" fill="#5D4428" font-family="Nunito, sans-serif" font-size="16" font-weight="800">화석</text><text x="372" y="226" text-anchor="end" fill="#8A735A" font-family="Nunito, sans-serif" font-size="12">31 / 73</text>
    <g transform="translate(18 246)"><rect width="354" height="310" rx="25" fill="#FFFDF7" stroke="#EBDDC8"/>
      <g transform="translate(16 16)"><rect width="322" height="78" rx="20" fill="#F8F1FF"/><circle cx="39" cy="39" r="25" fill="#E9D9FC"/><path d="M25 49c2-16 12-26 27-26-2 14-10 24-27 26Zm11-20 11 13" stroke="#8061A9" stroke-width="1.8" stroke-linecap="round"/><text x="78" y="34" fill="#5D4428" font-family="Nunito, sans-serif" font-size="15" font-weight="800">티라노사우루스</text><text x="78" y="54" fill="#8A7A65" font-family="Nunito, sans-serif" font-size="11">머리 · 몸통 · 꼬리</text><rect x="254" y="27" width="58" height="24" rx="12" fill="#DDF4E0"/><text x="283" y="43" text-anchor="middle" fill="#347043" font-family="Nunito, sans-serif" font-size="10" font-weight="800">기증 완료</text></g>
      <g transform="translate(16 108)"><rect width="322" height="78" rx="20" fill="#F8F1FF"/><circle cx="39" cy="39" r="25" fill="#E9D9FC"/><path d="M24 47c6-14 17-21 28-20-3 12-12 20-28 20Zm7-18 12 11" stroke="#8061A9" stroke-width="1.8" stroke-linecap="round"/><text x="78" y="34" fill="#5D4428" font-family="Nunito, sans-serif" font-size="15" font-weight="800">스테고사우루스</text><text x="78" y="54" fill="#8A7A65" font-family="Nunito, sans-serif" font-size="11">머리 · 몸통 · 꼬리</text><rect x="254" y="27" width="58" height="24" rx="12" fill="#FFF0D8"/><text x="283" y="43" text-anchor="middle" fill="#8C6128" font-family="Nunito, sans-serif" font-size="10" font-weight="800">2 / 3</text></g>
      <g transform="translate(16 200)"><rect width="322" height="78" rx="20" fill="#FBF7F2"/><circle cx="39" cy="39" r="25" fill="#EEE5F7"/><path d="M26 47c4-14 14-23 26-23-3 13-12 21-26 23Z" stroke="#A789C4" stroke-width="1.8" stroke-linecap="round"/><text x="78" y="34" fill="#5D4428" font-family="Nunito, sans-serif" font-size="15" font-weight="800">브라키오사우루스</text><text x="78" y="54" fill="#8A7A65" font-family="Nunito, sans-serif" font-size="11">머리 · 몸통 · 꼬리</text><rect x="254" y="27" width="58" height="24" rx="12" fill="#F1E7FF"/><text x="283" y="43" text-anchor="middle" fill="#7457A4" font-family="Nunito, sans-serif" font-size="10" font-weight="800">미수집</text></g>
    </g>
    <g transform="translate(18 704)"><rect width="354" height="64" rx="25" fill="#FCFAF3" stroke="#E8DFC8"/><rect x="100" y="8" width="70" height="48" rx="18" fill="#F3C85E"/><text x="135" y="45" text-anchor="middle" fill="#6A4B20" font-family="Nunito, sans-serif" font-size="10" font-weight="800">도감</text><text x="53" y="45" text-anchor="middle" fill="#867A63" font-family="Nunito, sans-serif" font-size="10">오늘</text><text x="221" y="45" text-anchor="middle" fill="#867A63" font-family="Nunito, sans-serif" font-size="10">공략</text><text x="307" y="45" text-anchor="middle" fill="#867A63" font-family="Nunito, sans-serif" font-size="10">내 섬</text></g>
  </g>

  <!-- ITEMS -->
  <g transform="translate(800 32)">
    <rect x="1" y="1" width="388" height="842" rx="36" fill="url(#bg)" stroke="#E5D5BB" stroke-width="2"/><circle cx="342" cy="110" r="80" fill="#FFE6AD" opacity=".45"/>
    <text x="18" y="48" fill="#5D4428" font-family="Nunito, sans-serif" font-size="26" font-weight="800">아이템</text><text x="18" y="72" fill="#8A735A" font-family="Nunito, sans-serif" font-size="13">섬을 꾸미는 모든 아이템을 모아봐요.</text>
    <g transform="translate(18 96)"><rect width="354" height="44" rx="22" fill="#FFFDF7" stroke="#EBDDC8"/><text x="28" y="27" fill="#A08A70" font-family="Nunito, sans-serif" font-size="13">아이템 이름 검색</text><path d="m346 27 5 5m-9-5c-3 0-5-2-5-5s2-5 5-5 5 2 5 5-2 5-5 5Z" stroke="#A08A70" stroke-width="1.5" stroke-linecap="round"/></g>
    <g transform="translate(18 160)"><rect width="70" height="32" rx="16" fill="#B9853A"/><text x="35" y="21" text-anchor="middle" fill="white" font-family="Nunito, sans-serif" font-size="12" font-weight="800">가구</text><rect x="78" width="70" height="32" rx="16" fill="#FFFDF7" stroke="#E7DCC7"/><text x="113" y="21" text-anchor="middle" fill="#806C54" font-family="Nunito, sans-serif" font-size="12">의류</text><rect x="156" width="70" height="32" rx="16" fill="#FFFDF7" stroke="#E7DCC7"/><text x="191" y="21" text-anchor="middle" fill="#806C54" font-family="Nunito, sans-serif" font-size="12">벽지</text><rect x="234" width="70" height="32" rx="16" fill="#FFFDF7" stroke="#E7DCC7"/><text x="269" y="21" text-anchor="middle" fill="#806C54" font-family="Nunito, sans-serif" font-size="12">바닥</text></g>
    <text x="18" y="226" fill="#5D4428" font-family="Nunito, sans-serif" font-size="16" font-weight="800">가구</text><text x="372" y="226" text-anchor="end" fill="#8A735A" font-family="Nunito, sans-serif" font-size="12">36 / 256</text>
    <g transform="translate(18 246)"><rect width="354" height="310" rx="25" fill="#FFFDF7" stroke="#EBDDC8"/>
      <g transform="translate(16 16)"><rect width="322" height="78" rx="20" fill="#FFF8EC"/><circle cx="39" cy="39" r="25" fill="#FFE4AA"/><path d="M24 47h30M27 47V28h24v19M31 28v-6h16v6M32 35h5" stroke="#A8752E" stroke-width="1.8" stroke-linecap="round" stroke-linejoin="round"/><text x="78" y="34" fill="#5D4428" font-family="Nunito, sans-serif" font-size="15" font-weight="800">원목 테이블</text><text x="78" y="54" fill="#8A7A65" font-family="Nunito, sans-serif" font-size="11">가구 · 내추럴</text><rect x="254" y="27" width="58" height="24" rx="12" fill="#DDF4E0"/><text x="283" y="43" text-anchor="middle" fill="#347043" font-family="Nunito, sans-serif" font-size="10" font-weight="800">보유</text></g>
      <g transform="translate(16 108)"><rect width="322" height="78" rx="20" fill="#FFF8EC"/><circle cx="39" cy="39" r="25" fill="#FFE4AA"/><path d="M25 43h28M28 43V29h22v14M32 29v-6h14v6" stroke="#A8752E" stroke-width="1.8" stroke-linecap="round"/><text x="78" y="34" fill="#5D4428" font-family="Nunito, sans-serif" font-size="15" font-weight="800">라탄 소파</text><text x="78" y="54" fill="#8A7A65" font-family="Nunito, sans-serif" font-size="11">가구 · 브라운</text><rect x="254" y="27" width="58" height="24" rx="12" fill="#FFF0D8"/><text x="283" y="43" text-anchor="middle" fill="#8C6128" font-family="Nunito, sans-serif" font-size="10" font-weight="800">미보유</text></g>
      <g transform="translate(16 200)"><rect width="322" height="78" rx="20" fill="#FBF7F2"/><circle cx="39" cy="39" r="25" fill="#F3E6CE"/><path d="M23 47h31M27 47V28h23v19M31 28v-5h15v5M31 35h5" stroke="#A78B64" stroke-width="1.8" stroke-linecap="round" stroke-linejoin="round"/><text x="78" y="34" fill="#5D4428" font-family="Nunito, sans-serif" font-size="15" font-weight="800">빈티지 램프</text><text x="78" y="54" fill="#8A7A65" font-family="Nunito, sans-serif" font-size="11">가구 · 조명</text><rect x="254" y="27" width="58" height="24" rx="12" fill="#F1E7FF"/><text x="283" y="43" text-anchor="middle" fill="#7457A4" font-family="Nunito, sans-serif" font-size="10" font-weight="800">미수집</text></g>
    </g>
    <g transform="translate(18 704)"><rect width="354" height="64" rx="25" fill="#FCFAF3" stroke="#E8DFC8"/><rect x="100" y="8" width="70" height="48" rx="18" fill="#F3C85E"/><text x="135" y="45" text-anchor="middle" fill="#6A4B20" font-family="Nunito, sans-serif" font-size="10" font-weight="800">도감</text><text x="53" y="45" text-anchor="middle" fill="#867A63" font-family="Nunito, sans-serif" font-size="10">오늘</text><text x="221" y="45" text-anchor="middle" fill="#867A63" font-family="Nunito, sans-serif" font-size="10">공략</text><text x="307" y="45" text-anchor="middle" fill="#867A63" font-family="Nunito, sans-serif" font-size="10">내 섬</text></g>
  </g>

  <!-- RECIPES -->
  <g transform="translate(1200 32)">
    <rect x="1" y="1" width="388" height="842" rx="36" fill="url(#bg)" stroke="#E5D5BB" stroke-width="2"/><circle cx="50" cy="115" r="90" fill="#D8ECFF" opacity=".43"/>
    <text x="18" y="48" fill="#5D4428" font-family="Nunito, sans-serif" font-size="26" font-weight="800">레시피</text><text x="18" y="72" fill="#8A735A" font-family="Nunito, sans-serif" font-size="13">DIY와 요리 레시피를 모아봐요.</text>
    <g transform="translate(18 96)"><rect width="354" height="44" rx="22" fill="#FFFDF7" stroke="#EBDDC8"/><text x="28" y="27" fill="#A08A70" font-family="Nunito, sans-serif" font-size="13">레시피 이름 검색</text><path d="m346 27 5 5m-9-5c-3 0-5-2-5-5s2-5 5-5 5 2 5 5-2 5-5 5Z" stroke="#A08A70" stroke-width="1.5" stroke-linecap="round"/></g>
    <g transform="translate(18 160)"><rect width="94" height="32" rx="16" fill="#5F83B4"/><text x="47" y="21" text-anchor="middle" fill="white" font-family="Nunito, sans-serif" font-size="12" font-weight="800">DIY</text><rect x="102" width="94" height="32" rx="16" fill="#FFFDF7" stroke="#E7DCC7"/><text x="149" y="21" text-anchor="middle" fill="#806C54" font-family="Nunito, sans-serif" font-size="12">요리</text><rect x="280" width="74" height="32" rx="16" fill="#EAF2FA"/><text x="317" y="21" text-anchor="middle" fill="#5F83B4" font-family="Nunito, sans-serif" font-size="11" font-weight="800">시즌만</text></g>
    <text x="18" y="226" fill="#5D4428" font-family="Nunito, sans-serif" font-size="16" font-weight="800">DIY 레시피</text><text x="372" y="226" text-anchor="end" fill="#8A735A" font-family="Nunito, sans-serif" font-size="12">12 / 64</text>
    <g transform="translate(18 246)"><rect width="354" height="310" rx="25" fill="#FFFDF7" stroke="#EBDDC8"/>
      <g transform="translate(16 16)"><rect width="322" height="78" rx="20" fill="#EEF7FF"/><circle cx="39" cy="39" r="25" fill="#D8ECFF"/><path d="M27 47h24M31 47V28h16v19M34 28v-5h10v5M34 35h5" stroke="#5F83B4" stroke-width="1.8" stroke-linecap="round" stroke-linejoin="round"/><text x="78" y="34" fill="#5D4428" font-family="Nunito, sans-serif" font-size="15" font-weight="800">철제 선반</text><text x="78" y="54" fill="#8A7A65" font-family="Nunito, sans-serif" font-size="11">철광석 5 · 점토 2</text><rect x="254" y="27" width="58" height="24" rx="12" fill="#DDF4E0"/><text x="283" y="43" text-anchor="middle" fill="#347043" font-family="Nunito, sans-serif" font-size="10" font-weight="800">완료</text></g>
      <g transform="translate(16 108)"><rect width="322" height="78" rx="20" fill="#EEF7FF"/><circle cx="39" cy="39" r="25" fill="#D8ECFF"/><path d="M25 47h29M29 47V30h21v17M33 30v-5h13v5" stroke="#5F83B4" stroke-width="1.8" stroke-linecap="round"/><text x="78" y="34" fill="#5D4428" font-family="Nunito, sans-serif" font-size="15" font-weight="800">나무 욕조</text><text x="78" y="54" fill="#8A7A65" font-family="Nunito, sans-serif" font-size="11">목재 8 · 철광석 2</text><rect x="254" y="27" width="58" height="24" rx="12" fill="#FFF0D8"/><text x="283" y="43" text-anchor="middle" fill="#8C6128" font-family="Nunito, sans-serif" font-size="10" font-weight="800">미완료</text></g>
      <g transform="translate(16 200)"><rect width="322" height="78" rx="20" fill="#FFF7E9"/><circle cx="39" cy="39" r="25" fill="#FFE4AA"/><path d="M25 48c5-12 11-20 17-25 4 7 8 15 12 25H25Z" stroke="#A8752E" stroke-width="1.8" stroke-linecap="round" stroke-linejoin="round"/><text x="78" y="34" fill="#5D4428" font-family="Nunito, sans-serif" font-size="15" font-weight="800">불꽃놀이 풍선</text><text x="78" y="54" fill="#8A7A65" font-family="Nunito, sans-serif" font-size="11">시즌 · 8월 1일-31일</text><rect x="254" y="27" width="58" height="24" rx="12" fill="#F1E7FF"/><text x="283" y="43" text-anchor="middle" fill="#7457A4" font-family="Nunito, sans-serif" font-size="10" font-weight="800">시즌</text></g>
    </g>
    <g transform="translate(18 704)"><rect width="354" height="64" rx="25" fill="#FCFAF3" stroke="#E8DFC8"/><rect x="100" y="8" width="70" height="48" rx="18" fill="#F3C85E"/><text x="135" y="45" text-anchor="middle" fill="#6A4B20" font-family="Nunito, sans-serif" font-size="10" font-weight="800">도감</text><text x="53" y="45" text-anchor="middle" fill="#867A63" font-family="Nunito, sans-serif" font-size="10">오늘</text><text x="221" y="45" text-anchor="middle" fill="#867A63" font-family="Nunito, sans-serif" font-size="10">공략</text><text x="307" y="45" text-anchor="middle" fill="#867A63" font-family="Nunito, sans-serif" font-size="10">내 섬</text></g>
  </g>

  <!-- RESIDENTS -->
  <g transform="translate(1600 32)">
    <rect x="1" y="1" width="388" height="842" rx="36" fill="url(#bg)" stroke="#E5D5BB" stroke-width="2"/><circle cx="340" cy="92" r="84" fill="#FFE0DA" opacity=".48"/>
    <text x="18" y="48" fill="#5D4428" font-family="Nunito, sans-serif" font-size="26" font-weight="800">주민</text><text x="18" y="72" fill="#8A735A" font-family="Nunito, sans-serif" font-size="13">함께 지내는 주민과 이사 기록을 관리해요.</text>
    <g transform="translate(18 96)"><rect width="354" height="44" rx="22" fill="#FFFDF7" stroke="#EBDDC8"/><text x="28" y="27" fill="#A08A70" font-family="Nunito, sans-serif" font-size="13">주민 이름 검색</text><path d="m346 27 5 5m-9-5c-3 0-5-2-5-5s2-5 5-5 5 2 5 5-2 5-5 5Z" stroke="#A08A70" stroke-width="1.5" stroke-linecap="round"/></g>
    <g transform="translate(18 160)"><rect width="94" height="32" rx="16" fill="#B56E61"/><text x="47" y="21" text-anchor="middle" fill="white" font-family="Nunito, sans-serif" font-size="12" font-weight="800">현재 주민</text><rect x="102" width="94" height="32" rx="16" fill="#FFFDF7" stroke="#E7DCC7"/><text x="149" y="21" text-anchor="middle" fill="#806C54" font-family="Nunito, sans-serif" font-size="12">이사 기록</text></g>
    <text x="18" y="226" fill="#5D4428" font-family="Nunito, sans-serif" font-size="16" font-weight="800">현재 주민 8명</text><text x="372" y="226" text-anchor="end" fill="#8A735A" font-family="Nunito, sans-serif" font-size="12">섬 생활 142일</text>
    <g transform="translate(18 246)"><rect width="354" height="310" rx="25" fill="#FFFDF7" stroke="#EBDDC8"/>
      <g transform="translate(16 16)"><rect width="322" height="78" rx="20" fill="#FFF2F1"/><circle cx="39" cy="39" r="25" fill="#FFE0DA"/><circle cx="39" cy="34" r="10" stroke="#B56E61" stroke-width="1.8"/><path d="M24 54c3-9 9-13 15-13s12 4 15 13" stroke="#B56E61" stroke-width="1.8" stroke-linecap="round"/><text x="78" y="34" fill="#5D4428" font-family="Nunito, sans-serif" font-size="15" font-weight="800">쭈니</text><text x="78" y="54" fill="#8A7A65" font-family="Nunito, sans-serif" font-size="11">느끼함 · 토끼</text><rect x="254" y="27" width="58" height="24" rx="12" fill="#DDF4E0"/><text x="283" y="43" text-anchor="middle" fill="#347043" font-family="Nunito, sans-serif" font-size="10" font-weight="800">친밀도 4</text></g>
      <g transform="translate(16 108)"><rect width="322" height="78" rx="20" fill="#FFF2F1"/><circle cx="39" cy="39" r="25" fill="#FFE0DA"/><circle cx="39" cy="34" r="10" stroke="#B56E61" stroke-width="1.8"/><path d="M24 54c3-9 9-13 15-13s12 4 15 13" stroke="#B56E61" stroke-width="1.8" stroke-linecap="round"/><text x="78" y="34" fill="#5D4428" font-family="Nunito, sans-serif" font-size="15" font-weight="800">메이첼</text><text x="78" y="54" fill="#8A7A65" font-family="Nunito, sans-serif" font-size="11">친절함 · 코끼리</text><rect x="254" y="27" width="58" height="24" rx="12" fill="#FFF0D8"/><text x="283" y="43" text-anchor="middle" fill="#8C6128" font-family="Nunito, sans-serif" font-size="10" font-weight="800">친밀도 2</text></g>
      <g transform="translate(16 200)"><rect width="322" height="78" rx="20" fill="#FBF7F2"/><circle cx="39" cy="39" r="25" fill="#F3E6CE"/><circle cx="39" cy="34" r="10" stroke="#A78B64" stroke-width="1.8"/><path d="M24 54c3-9 9-13 15-13s12 4 15 13" stroke="#A78B64" stroke-width="1.8" stroke-linecap="round"/><text x="78" y="34" fill="#5D4428" font-family="Nunito, sans-serif" font-size="15" font-weight="800">펭수</text><text x="78" y="54" fill="#8A7A65" font-family="Nunito, sans-serif" font-size="11">운동광 · 펭귄</text><rect x="254" y="27" width="58" height="24" rx="12" fill="#F1E7FF"/><text x="283" y="43" text-anchor="middle" fill="#7457A4" font-family="Nunito, sans-serif" font-size="10" font-weight="800">친밀도 1</text></g>
    </g>
    <g transform="translate(18 704)"><rect width="354" height="64" rx="25" fill="#FCFAF3" stroke="#E8DFC8"/><rect x="100" y="8" width="70" height="48" rx="18" fill="#F3C85E"/><text x="135" y="45" text-anchor="middle" fill="#6A4B20" font-family="Nunito, sans-serif" font-size="10" font-weight="800">도감</text><text x="53" y="45" text-anchor="middle" fill="#867A63" font-family="Nunito, sans-serif" font-size="10">오늘</text><text x="221" y="45" text-anchor="middle" fill="#867A63" font-family="Nunito, sans-serif" font-size="10">공략</text><text x="307" y="45" text-anchor="middle" fill="#867A63" font-family="Nunito, sans-serif" font-size="10">내 섬</text></g>
  </g>
</svg>
